<svg width="390" height="76" viewBox="0 0 390 76" fill="none" xmlns="http://www.w3.org/2000/svg">
<mask id="mask0_138_4733" style="mask-type:luminance" maskUnits="userSpaceOnUse" x="0" y="0" width="391" height="77">
<path d="M0 0.000317432H390.084V76.415H0V0.000317432Z" fill="white"/>
</mask>
<g mask="url(#mask0_138_4733)">
<path d="M43.3597 45.2826V42.5874C43.3597 34.2205 36.5765 27.4373 28.2096 27.4373H15.1502C6.78262 27.4373 0 34.2205 0 42.5874V61.2502C0 69.6172 6.78262 76.4004 15.1502 76.4004H28.2096C36.5765 76.4004 43.3597 69.6172 43.3597 61.2502V58.5518H30.085V59.347C30.085 62.5814 27.4633 65.2025 24.23 65.2025H19.1202C15.887 65.2025 13.2653 62.5814 13.2653 59.347V44.4545C13.2653 41.2207 15.887 38.599 19.1202 38.599H24.23C27.4633 38.599 30.085 41.2207 30.085 44.4545V45.2826H43.3597Z" fill="black"/>
<path d="M167.126 58.5569L173.126 38.6042L173.162 38.4623L173.197 38.6042L179.055 58.5569H167.126ZM187.292 38.6042L183.919 27.4208H162.156L158.854 38.6042L147.635 76.415H161.765L164.286 68.0008H181.824L184.31 76.415H198.617L187.292 38.6042Z" fill="black"/>
<path d="M173.197 38.6045H173.126L173.162 38.4626L173.197 38.6045Z" fill="black"/>
<path d="M144.247 27.4373H105.727V38.599H118.355V76.4004H131.62V38.599H144.247V27.4373Z" fill="black"/>
<path d="M390.084 27.4373H351.564V38.599H363.559V76.4004H376.825V38.599H390.084V27.4373Z" fill="black"/>
<path d="M288.525 27.4373V62.1779H288.475C288.191 63.8825 286.735 65.1958 284.96 65.1958H275.942C274.132 65.1958 272.676 63.8825 272.428 62.1779L272.374 62.1785V27.4373H259.109V63.1351C259.109 70.4614 265.048 76.4004 272.374 76.4004L288.525 76.3792V76.4004C295.851 76.4004 301.79 70.4614 301.79 63.1351V27.4373H288.525Z" fill="black"/>
<path d="M328.495 65.2387V27.4373H315.23V65.2387L315.229 76.4004H348.765V65.2387H328.495Z" fill="black"/>
<path d="M107.046 76.3667L92.1346 76.4023L77.6851 49.9524L75.8748 53.2542L63.2355 76.4023H48.2891L70.2296 36.3199L50.3481 -0.000124926H65.2946L77.6851 22.6862L77.9338 23.1481L85.1411 36.3199L85.5312 37.03L107.046 76.3667Z" fill="black"/>
<path d="M234.411 47.3589C234.411 50.2666 232.054 52.6239 229.146 52.6239H219.525V38.599H229.146C232.054 38.599 234.411 40.9563 234.411 43.8641V47.3589ZM235.402 27.4373H219.525H206.26V76.4004H219.525V63.7856H235.402C242.324 63.7856 247.934 58.175 247.934 51.2538V39.9697C247.934 33.0485 242.324 27.4373 235.402 27.4373Z" fill="black"/>
</g>
</svg>
