<svg width="203" height="36" viewBox="0 0 203 36" fill="none" xmlns="http://www.w3.org/2000/svg">
<path d="M50.293 28.057C54.2693 28.057 57.1254 25.9966 58.574 23.0435C58.6496 22.8892 58.5736 22.7071 58.4103 22.6407L55.6028 21.4989C55.4395 21.4325 55.252 21.5076 55.1764 21.6618C54.3206 23.4072 52.6262 24.6839 50.3631 24.6839C47.2079 24.6839 44.8239 22.2553 44.8239 19.287C44.8239 16.285 47.1728 13.8901 50.293 13.8901C52.4619 13.8901 54.1861 14.9902 55.1031 16.7831C55.1806 16.9347 55.3668 17.0071 55.5283 16.9408L58.3098 15.7978C58.4712 15.7315 58.547 15.5518 58.473 15.3987C57.0778 12.5126 54.064 10.5171 50.293 10.5171C45.1745 10.5171 41.1429 14.3286 41.1429 19.287C41.1429 24.1442 45.1044 28.057 50.293 28.057Z" fill="#1A1A1A"/>
<path d="M61.4255 27.413C61.4255 27.5824 61.5682 27.7197 61.7442 27.7197H64.858C65.034 27.7197 65.1767 27.5824 65.1767 27.413V3.65176C65.1767 3.43203 64.9436 3.28361 64.7334 3.36952L61.6196 4.64221C61.5019 4.69031 61.4255 4.80142 61.4255 4.92444V27.413Z" fill="#1A1A1A"/>
<path d="M76.9189 28.057C79.2327 28.057 81.4414 27.0451 82.7736 25.3923V27.413C82.7736 27.5824 82.9163 27.7197 83.0923 27.7197H86.2061C86.3821 27.7197 86.5248 27.5824 86.5248 27.413V11.161C86.5248 10.9917 86.3821 10.8544 86.2061 10.8544H83.0923C82.9163 10.8544 82.7736 10.9917 82.7736 11.161V13.0469C81.4764 11.4953 79.2678 10.5171 76.954 10.5171C72.3614 10.5171 68.1895 13.8901 68.1895 19.287C68.1895 24.6502 72.4665 28.057 76.9189 28.057ZM77.4448 24.7514C74.3246 24.7514 71.9056 22.3228 71.9056 19.2533C71.9056 16.1838 74.3246 13.7889 77.4448 13.7889C80.635 13.7889 82.9839 16.2513 82.9839 19.2533C82.9839 22.289 80.635 24.7514 77.4448 24.7514Z" fill="#1A1A1A"/>
<path d="M90.3201 27.413C90.3201 27.5824 90.4628 27.7197 90.6388 27.7197H93.7876C93.9636 27.7197 94.1063 27.5824 94.1063 27.413V19.3545C94.1063 15.8465 95.4035 14.2949 98.5937 14.2949H100.554C100.73 14.2949 100.872 14.1576 100.872 13.9883V11.161C100.872 10.9917 100.73 10.8544 100.554 10.8544H99.1897C96.7357 10.8544 95.0178 11.7988 94.0713 13.5191V11.161C94.0713 10.9917 93.9286 10.8544 93.7525 10.8544H90.6388C90.4627 10.8544 90.3201 10.9917 90.3201 11.161V27.413Z" fill="#1A1A1A"/>
<path d="M103.912 27.413C103.912 27.5824 104.055 27.7197 104.231 27.7197H107.379C107.555 27.7197 107.698 27.5824 107.698 27.413V11.161C107.698 10.9917 107.555 10.8544 107.379 10.8544H104.231C104.055 10.8544 103.912 10.9917 103.912 11.161V27.413ZM103.281 5.82852C103.281 7.2452 104.297 8.25712 105.805 8.25712C107.277 8.25712 108.329 7.2452 108.329 5.82852C108.329 4.41183 107.277 3.39991 105.805 3.39991C104.333 3.39991 103.281 4.41183 103.281 5.82852Z" fill="#1A1A1A"/>
<path d="M117.758 28.057C122.631 28.0907 124.98 25.1899 124.98 22.6601C124.98 19.1184 121.65 18.1739 118.705 17.5668C116.041 16.9933 114.533 16.7235 114.533 15.5092C114.533 14.3961 115.515 13.4854 117.583 13.4854C119.321 13.4854 120.569 14.1052 121.411 15.1793C121.51 15.306 121.691 15.3498 121.836 15.2739L124.424 13.918C124.59 13.831 124.642 13.6242 124.528 13.4787C123.052 11.5893 120.828 10.4833 117.583 10.4833C113.411 10.4496 110.747 12.9119 110.747 15.5767C110.747 19.0509 113.902 19.9954 116.882 20.5688C119.126 21.041 121.229 21.3446 121.229 22.7275C121.229 23.9081 120.107 24.92 117.934 24.92C115.94 24.92 114.482 24.1629 113.47 22.7347C113.375 22.6004 113.19 22.552 113.041 22.6295L110.229 24.0949C110.071 24.1773 110.015 24.3696 110.111 24.5158C111.635 26.8364 114.111 28.057 117.758 28.057Z" fill="#1A1A1A"/>
<path d="M127.809 27.413C127.809 27.5824 127.951 27.7197 128.127 27.7197H131.276C131.452 27.7197 131.595 27.5824 131.595 27.413V11.161C131.595 10.9917 131.452 10.8544 131.276 10.8544H128.127C127.951 10.8544 127.809 10.9917 127.809 11.161V27.413ZM127.178 5.82852C127.178 7.2452 128.194 8.25712 129.702 8.25712C131.174 8.25712 132.226 7.2452 132.226 5.82852C132.226 4.41183 131.174 3.39991 129.702 3.39991C128.229 3.39991 127.178 4.41183 127.178 5.82852Z" fill="#1A1A1A"/>
<path d="M143.303 28.057C145.617 28.057 147.86 27.0113 149.193 25.3248V27.4498C149.193 30.3507 147.265 32.6106 144.074 32.6106C141.547 32.6106 139.903 31.5483 138.992 29.8555C138.91 29.7033 138.719 29.6351 138.558 29.7086L135.666 31.0293C135.508 31.1017 135.44 31.284 135.52 31.434C136.915 34.0265 139.84 35.9162 144.074 35.9162C149.684 35.9162 152.909 32.2733 152.909 27.3149V11.161C152.909 10.9917 152.766 10.8544 152.59 10.8544H149.476C149.3 10.8544 149.158 10.9917 149.158 11.161V13.1481C147.825 11.529 145.652 10.5171 143.338 10.5171C138.745 10.5171 134.574 13.8901 134.574 19.287C134.574 24.6502 138.851 28.057 143.303 28.057ZM143.829 24.7514C140.709 24.7514 138.29 22.3228 138.29 19.2533C138.29 16.1838 140.709 13.7889 143.829 13.7889C147.019 13.7889 149.368 16.2513 149.368 19.2533C149.368 22.289 147.019 24.7514 143.829 24.7514Z" fill="#1A1A1A"/>
<path d="M156.465 27.413C156.465 27.5824 156.608 27.7197 156.784 27.7197H159.898C160.074 27.7197 160.216 27.5824 160.216 27.413V18.4438C160.216 15.4755 162.145 13.654 164.634 13.654C167.473 13.654 168.876 15.408 168.876 18.2076V27.413C168.876 27.5824 169.018 27.7197 169.194 27.7197H172.378C172.554 27.7197 172.697 27.5824 172.697 27.413V17.8703C172.697 13.283 169.998 10.5171 165.58 10.5171C163.302 10.5171 161.373 11.4953 160.181 12.9794V3.65347C160.181 3.4333 159.947 3.28487 159.737 3.37164L156.658 4.64187C156.541 4.6902 156.465 4.80105 156.465 4.92369V27.413Z" fill="#1A1A1A"/>
<path d="M174.627 13.7859C174.627 13.9552 174.769 14.0925 174.945 14.0925H177.607V20.8386C177.607 26.1006 179.219 27.7197 184.548 27.7197H184.79C184.966 27.7197 185.109 27.5824 185.109 27.413V24.6195C185.109 24.4502 184.966 24.3132 184.79 24.3112C181.851 24.2778 181.393 23.7375 181.393 20.8049V14.0925H184.79C184.966 14.0925 185.109 13.9552 185.109 13.7859V11.161C185.109 10.9917 184.966 10.8544 184.79 10.8544H181.393V5.18329C181.393 4.96401 181.161 4.8156 180.95 4.90066L177.802 6.17575C177.683 6.22362 177.607 6.33499 177.607 6.45838V10.8544H174.945C174.769 10.8544 174.627 10.9917 174.627 11.161V13.7859Z" fill="#1A1A1A"/>
<path d="M195.064 28.057C199.937 28.0907 202.286 25.1899 202.286 22.6601C202.286 19.1184 198.955 18.1739 196.01 17.5668C193.346 16.9933 191.838 16.7235 191.838 15.5092C191.838 14.3961 192.82 13.4854 194.888 13.4854C196.627 13.4854 197.874 14.1052 198.717 15.1793C198.816 15.306 198.996 15.3498 199.141 15.2739L201.73 13.918C201.896 13.831 201.947 13.6242 201.834 13.4787C200.357 11.5893 198.134 10.4833 194.888 10.4833C190.717 10.4496 188.052 12.9119 188.052 15.5767C188.052 19.0509 191.207 19.9954 194.187 20.5688C196.431 21.041 198.535 21.3446 198.535 22.7275C198.535 23.9081 197.413 24.92 195.239 24.92C193.246 24.92 191.788 24.1629 190.775 22.7347C190.68 22.6004 190.495 22.552 190.347 22.6295L187.535 24.0949C187.377 24.1773 187.32 24.3696 187.416 24.5158C188.941 26.8364 191.417 28.057 195.064 28.057Z" fill="#1A1A1A"/>
<path d="M19.3372 18.7905C19.1005 18.7905 18.9086 18.9824 18.9086 19.2191V33.6417C18.9086 33.8952 19.1282 34.0936 19.3796 34.0617C27.1228 33.0803 33.1686 27.0059 34.1489 19.2615C34.1807 19.0101 33.9823 18.7905 33.7288 18.7905H19.3372Z" fill="#0A8577"/>
<path d="M18.8571 14.8992V0.473267C18.8571 0.219822 19.0767 0.0213646 19.3282 0.0533063C27.0575 1.03526 33.1628 7.11258 34.1454 14.8568C34.1773 15.1082 33.9789 15.3277 33.7255 15.3277H19.2857C19.049 15.3277 18.8571 15.1358 18.8571 14.8992Z" fill="#9F3852"/>
<path d="M15.4286 33.642V0.472916C15.4286 0.219597 15.209 0.0211971 14.9577 0.0529276C6.49502 1.12137 0 8.28968 0 17.0592C0 25.8286 6.49502 32.9937 14.9577 34.062C15.209 34.0938 15.4286 33.8954 15.4286 33.642Z" fill="#FBBE37"/>
</svg>
