<?xml version="1.0" encoding="UTF-8"?><svg id="Layer_1" xmlns="http://www.w3.org/2000/svg" width="509.84" height="72.84" viewBox="0 0 509.84 72.84"><path d="m20.88,32.94v6.97c0,8.56,6.94,15.5,15.5,15.5h24.23v17.44h-24.19C16.3,72.84,0,56.54,0,36.42S16.3,0,36.41,0h24.19v17.44h-24.23c-8.56,0-15.5,6.94-15.5,15.5Z" fill="#1d1d1b" stroke-width="0"/><path d="m98.38,0C78.41,0,62.21,16.31,62.21,36.42s16.2,36.42,36.18,36.42,36.18-16.31,36.18-36.42S118.36,0,98.38,0Zm15.5,32.96v7.08c0,8.56-6.94,15.5-15.5,15.5s-15.5-6.94-15.5-15.5v-7.11c0-8.3,6.51-15.06,14.7-15.48.27-.01.53-.02.8-.02s.53.01.8.02c8.19.41,14.7,7.18,14.7,15.48v.02Z" fill="#1d1d1b" stroke-width="0"/><polygon points="203.62 0 203.62 72.84 184.65 72.84 159.51 34.86 159.51 72.84 139.69 72.84 139.69 0 158.67 0 183.81 37.99 183.81 0 203.62 0" fill="#1d1d1b" stroke-width="0"/><path d="m273.82,50.96c0,12.06-9.75,21.84-21.79,21.88h-36.49v-17.47l36.27.03c2.54,0,4.6-2.06,4.6-4.6,0-2.35-1.76-4.28-4.05-4.56-.04,0-23.93-2.61-23.93-2.61-11.02-1.12-19.63-10.43-19.63-21.75C208.8,9.79,218.59,0,230.67,0h36.49v17.47l-36.35-.03c-2.54,0-4.6,2.05-4.6,4.59,0,2.34,1.74,4.26,3.99,4.56l24,2.62c11.01,1.14,19.61,10.44,19.61,21.75Z" fill="#1d1d1b" stroke-width="0"/><polygon points="299.31 17.47 299.31 26.63 333.02 26.63 333.02 43.14 299.31 43.14 299.31 55.37 340.45 55.37 340.45 72.84 279 72.84 279 0 340.45 0 340.45 17.47 299.31 17.47" fill="#1d1d1b" stroke-width="0"/><polygon points="411.73 0 411.73 17.44 437.85 17.44 437.85 72.84 458.16 72.84 458.16 17.44 484.28 17.44 484.28 0 411.73 0" fill="#1d1d1b" stroke-width="0"/><rect x="489.42" width="20.43" height="72.84" fill="#1d1d1b" stroke-width="0"/><path d="m385.65,0h-40.06v72.84h20.31v-23.87h19.89c13.47-.08,24.34-11.01,24.34-24.49S399.19.01,385.65,0Zm4.16,24.49c0,.14-.01.28-.02.41-.21,3.69-3.28,6.61-7.01,6.61h-16.89v-14.07h16.89c3.75,0,6.82,2.94,7.01,6.65.02.13.02.25.02.38v.02Z" fill="#1d1d1b" stroke-width="0"/></svg>