<svg width="429" height="98" viewBox="0 0 429 98" fill="none" xmlns="http://www.w3.org/2000/svg">
<path d="M353.222 63.8554C347.407 63.7271 344.029 59.5795 344.071 52.6952C344.136 46.4738 347.941 42.2834 353.564 42.262C359.443 42.262 363.227 46.4952 363.206 53.0373C363.206 59.9859 359.465 64.0051 353.222 63.8554ZM375.243 40.3807C370.475 30.3532 356.387 25.0728 344.328 34.8858C344.157 33.3894 344.007 31.9786 343.815 30.3746H329.598V96.9727H344.264V71.2317C345.226 71.8726 345.76 72.1078 346.167 72.4928C353.094 78.8639 366.948 78.7997 374.003 67.7892C379.605 59.0876 379.626 49.5948 375.265 40.3807H375.243Z" fill="black"/>
<path d="M276.683 63.857C270.953 63.9425 266.742 59.5597 266.635 53.3811C266.528 46.8817 270.568 42.3064 276.448 42.285C282.156 42.2422 286.261 46.6678 286.304 52.932C286.347 59.1747 282.284 63.7928 276.683 63.857ZM297.058 38.5651C290.665 28.5163 278.864 27.1268 266.72 34.9515V30.2906H252.695V97.1025H266.72V70.998C269.135 72.5585 271.189 74.0121 273.091 75.0386C281.215 78.7157 291.221 75.8727 296.374 68.582C302.381 60.1371 302.638 47.3736 297.058 38.5651Z" fill="black"/>
<path d="M396.217 48.4219C396.966 43.9321 399.531 41.623 403.892 41.3664C408.874 41.067 412.102 43.8251 412.594 48.4219H396.217ZM428.094 53.1041C428.094 40.1481 417.639 29.6508 404.683 29.5011H404.405C401.775 29.5652 399.125 29.9923 396.666 30.805C396.303 30.9119 395.96 31.0616 395.597 31.1899C395.426 31.2541 395.255 31.3182 395.084 31.4038C390.979 33.1568 387.494 36.0219 384.971 39.6348C380.118 47.6092 380.332 59.6035 385.442 67.2357C388.029 70.6568 391.513 73.3508 395.533 74.9969C395.575 74.9969 395.618 74.9969 395.64 75.0397C396.217 75.2749 396.816 75.4888 397.415 75.6813C397.692 75.7668 397.991 75.8517 398.291 75.9372C398.697 76.0228 399.103 76.1297 399.531 76.2152C399.574 76.2152 399.637 76.258 399.659 76.258C400.429 76.4077 401.22 76.536 402.011 76.6216C402.823 76.7071 403.636 76.7285 404.427 76.7285C404.833 76.7285 405.239 76.7285 405.646 76.6857C406.052 76.6857 406.458 76.643 406.864 76.6002C416.335 75.6385 424.16 69.1177 427.004 60.3306H412.017C412.017 60.3306 411.632 61.0357 411.119 61.7628C408.703 65.1405 404.854 65.2261 401.519 64.3071C398.077 63.3661 396.367 60.6294 396.11 56.6743H427.881C428.052 55.5201 428.159 54.3224 428.159 53.1041H428.094Z" fill="black"/>
<path d="M94.1001 30.3135H108.147V35.4663C113.834 29.95 120.697 28.7316 127.816 30.7626C134.123 32.5584 138.399 37.1337 138.827 43.2696C139.232 53.6172 139.04 75.7238 139.04 75.7238H125.101V61.2073C125.079 57.0811 125.272 52.9121 124.866 48.8287C124.416 44.1892 121.509 42.0726 116.592 42.094C111.995 42.1154 109.109 44.1892 108.745 48.6576C108.232 54.6651 108.297 60.7154 108.168 66.7657V75.7666H94.1215V30.3349L94.1001 30.3135Z" fill="black"/>
<path d="M147.785 30.376H161.831V35.5288C167.518 30.0125 174.381 28.7941 181.501 30.8251C187.808 32.6209 192.084 37.1962 192.511 43.3321C192.917 53.6797 192.724 75.7863 192.724 75.7863H178.785V61.2698C178.764 57.1436 178.956 52.9746 178.55 48.8912C178.101 44.2517 175.193 42.1351 170.276 42.1565C165.68 42.1779 162.793 44.2517 162.43 48.7201C161.917 54.7276 161.981 60.7779 161.853 66.8282V75.8291H147.806V30.3974L147.785 30.376Z" fill="black"/>
<path d="M222.571 63.9004C216.949 63.9432 213.485 59.9453 213.356 53.2962C213.249 46.6257 216.927 42.2215 222.657 42.2429C228.151 42.2429 231.872 46.5401 231.893 52.9112C231.936 59.71 228.408 63.879 222.571 63.9004ZM222.635 29.073C209.38 29.073 198.626 39.8055 198.626 53.0609C198.626 66.3164 209.38 77.0703 222.635 77.0703C235.891 77.0703 246.645 66.3378 246.645 53.0609C246.645 39.7841 235.891 29.073 222.635 29.073Z" fill="black"/>
<path d="M69.7061 0.101921H83.4748V74.9951H69.7061V0.101921Z" fill="black"/>
<path d="M60.5556 75.0166H46.7441V9.42373H60.5556V75.0166Z" fill="black"/>
<path d="M22.9917 19.4932H37.124V74.9951H22.9917V19.4932Z" fill="black"/>
<path d="M0.5 29.3282H14.7599V74.9951H0.5V29.3282Z" fill="black"/>
<path d="M307.127 30.397H320.768V75.7432H307.127V30.397Z" fill="black"/>
<path d="M313.948 10.0889C318.506 10.0889 322.2 13.7834 322.2 18.3413C322.2 22.8993 318.506 26.5938 313.948 26.5938C309.39 26.5938 305.695 22.8993 305.695 18.3413C305.695 13.7834 309.39 10.0889 313.948 10.0889Z" fill="black"/>
</svg>
